<?xml version="1.0" standalone="no"?>
<!DOCTYPE svg PUBLIC "-//W3C//DTD SVG 20010904//EN"
 "http://www.w3.org/TR/2001/REC-SVG-20010904/DTD/svg10.dtd">
<svg version="1.0" xmlns="http://www.w3.org/2000/svg"
 width="600.000000pt" height="600.000000pt" viewBox="0 0 600.000000 600.000000"
 preserveAspectRatio="xMidYMid meet">

<g transform="translate(0.000000,600.000000) scale(0.100000,-0.100000)"
fill="#000000" stroke="none">
<path d="M3780 4880 c-8 -5 -25 -10 -38 -10 -13 0 -21 -3 -19 -7 3 -5 -15 -6
-40 -4 -26 2 -63 -4 -89 -14 -37 -14 -52 -15 -99 -5 -52 11 -108 7 -130 -10
-39 -29 -112 -60 -156 -66 -51 -7 -92 -36 -105 -76 -3 -10 -9 -18 -14 -18 -5
0 -18 -17 -29 -38 -18 -35 -18 -39 -3 -49 16 -11 16 -12 0 -12 -23 -1 -23 -17
-1 -29 16 -9 16 -11 0 -36 -9 -14 -17 -32 -17 -41 0 -8 -5 -15 -11 -15 -6 0
-9 6 -6 14 3 8 1 17 -6 19 -9 3 -9 7 0 18 15 19 1 42 -22 37 -20 -3 -31 -20
-39 -60 -4 -19 -11 -25 -24 -21 -18 4 -52 -32 -56 -61 -4 -26 -31 -82 -46 -93
-8 -6 -15 -17 -15 -25 0 -7 -8 -12 -17 -12 -17 2 -33 -61 -22 -89 3 -8 -2 -17
-10 -20 -9 -4 -16 -15 -16 -24 0 -10 -7 -29 -16 -41 -11 -16 -15 -40 -12 -82
1 -32 0 -62 -5 -66 -13 -13 -8 -46 6 -38 8 6 8 3 -1 -9 -8 -9 -11 -25 -7 -36
3 -10 1 -22 -4 -26 -15 -8 7 -55 38 -83 24 -21 25 -24 9 -33 -19 -11 -24 -48
-9 -77 12 -24 31 -86 31 -102 0 -16 48 -120 56 -120 2 0 -1 10 -7 22 -7 13
-10 49 -7 93 6 85 28 125 88 155 55 28 62 27 135 -14 17 -9 46 -25 65 -34 19
-9 39 -23 43 -29 4 -7 16 -13 26 -13 10 0 24 -11 31 -25 7 -14 17 -25 21 -25
12 0 22 65 14 89 -7 23 -30 28 -38 9 -3 -7 -6 5 -6 28 -1 22 6 49 14 60 8 10
15 27 15 37 0 10 4 16 9 13 5 -3 7 -14 4 -25 -3 -11 2 -21 11 -24 9 -4 16 -15
16 -26 0 -10 7 -21 15 -25 17 -6 21 19 5 29 -12 8 -13 102 -1 109 4 3 13 -6
20 -21 11 -24 12 -25 31 -8 11 10 22 26 25 35 3 10 24 30 47 45 77 51 151 137
101 118 -17 -7 -17 -6 -2 18 12 17 14 30 8 41 -13 24 -6 79 12 99 9 9 19 23
21 30 4 11 8 11 18 2 10 -9 10 -27 2 -80 -10 -73 -8 -90 7 -52 5 13 20 34 34
47 14 13 30 44 37 69 14 49 33 62 62 44 17 -10 20 -9 25 8 3 12 10 18 15 15 6
-4 14 0 19 7 7 12 9 11 9 -2 0 -8 6 -21 13 -27 12 -13 13 -17 16 -47 0 -8 7
-12 16 -9 25 10 17 -7 -21 -41 -29 -27 -32 -34 -18 -39 13 -5 14 -9 4 -21 -10
-13 -8 -15 14 -15 14 0 26 -4 26 -10 0 -16 22 -12 35 7 11 15 14 15 35 0 14
-9 34 -14 49 -11 35 7 131 -47 131 -73 0 -14 -46 -33 -79 -33 -51 0 -88 -11
-116 -36 l-28 -24 24 -19 c13 -11 31 -21 39 -21 10 0 11 -3 4 -8 -6 -4 -13
-15 -17 -24 -4 -11 -17 -18 -33 -18 -39 0 -194 -53 -190 -65 1 -5 34 -10 72
-11 95 -1 103 -2 85 -13 -11 -7 -4 -19 33 -53 26 -23 66 -53 88 -65 42 -23 97
-79 98 -100 0 -7 -9 -17 -20 -23 -11 -6 -18 -15 -15 -20 3 -5 -13 -19 -34 -31
-22 -12 -38 -25 -36 -29 3 -4 -17 -28 -44 -53 l-48 -45 2 -96 c2 -71 6 -101
18 -114 8 -9 17 -28 19 -42 2 -20 8 -24 27 -22 20 2 22 0 11 -13 -10 -12 -10
-15 2 -15 15 0 110 80 95 80 -19 0 31 38 58 43 43 8 163 -12 204 -34 l36 -19
-51 0 c-63 0 -100 -17 -115 -53 -14 -33 -10 -36 51 -62 25 -10 51 -23 58 -28
39 -29 -22 -106 -89 -112 -23 -3 -48 -10 -55 -16 -8 -6 -20 -9 -28 -6 -7 3
-33 1 -56 -4 -30 -7 -46 -6 -56 2 -11 9 -18 9 -29 -1 -9 -7 -26 -9 -46 -5 -26
6 -35 3 -49 -15 -14 -19 -23 -22 -52 -16 -23 4 -38 13 -41 25 -3 14 -12 17
-43 15 -22 -1 -43 -3 -48 -3 -5 -1 0 -11 11 -23 37 -42 39 -51 7 -45 -35 6
-86 -17 -78 -37 3 -8 18 -19 32 -24 46 -17 102 -74 102 -105 0 -15 3 -27 8
-27 22 0 36 -98 23 -161 0 -3 -12 -11 -26 -17 -29 -14 -34 -56 -8 -70 10 -6
17 -24 18 -48 2 -45 14 -84 25 -84 4 0 8 -16 8 -35 0 -36 18 -69 32 -60 5 3
15 -4 23 -15 12 -18 21 -20 50 -15 41 8 41 8 52 -100 3 -33 10 -64 15 -69 9
-9 91 15 150 44 19 10 56 20 83 22 46 5 59 12 123 71 27 25 35 27 53 17 12 -6
34 -10 49 -8 22 2 30 -3 44 -32 10 -19 18 -54 18 -77 0 -23 7 -73 15 -111 8
-38 17 -99 21 -136 6 -58 9 -64 20 -48 17 25 23 254 10 432 -7 98 -6 103 8 75
9 -16 20 -37 25 -45 5 -8 14 -27 22 -43 7 -15 19 -27 27 -27 7 0 11 6 8 13 -3
6 -9 20 -12 30 -4 9 -10 17 -15 17 -5 0 -8 3 -7 8 4 14 -13 52 -23 52 -6 0 -7
4 -4 10 7 11 -54 111 -95 155 -15 17 -30 46 -33 65 l-6 35 16 -30 c9 -16 34
-48 57 -70 23 -23 55 -62 71 -89 40 -64 40 -65 61 -113 9 -24 23 -43 30 -43
19 0 -80 186 -125 235 -41 44 -52 65 -77 145 -25 82 -47 111 -111 150 -32 19
-59 38 -61 42 -2 5 -10 8 -18 8 -21 0 -104 41 -104 51 0 16 49 10 88 -10 l38
-19 45 27 c24 15 51 41 59 56 19 35 19 130 0 173 -12 26 -12 36 -2 52 7 12 8
21 2 25 -6 3 -10 20 -10 37 0 17 -7 36 -17 43 -14 11 -13 13 12 19 15 4 29 5
31 3 7 -7 6 -135 -1 -146 -3 -6 -4 -11 -1 -11 8 0 34 63 63 155 13 44 32 94
40 110 8 17 20 59 26 95 14 86 15 265 2 265 -22 1 -35 16 -26 32 5 10 3 30 -7
54 -14 38 -14 38 17 69 32 32 39 54 21 65 -15 10 -12 35 4 29 10 -4 19 10 31
46 17 51 17 53 -4 91 l-22 38 20 18 c18 15 19 20 7 38 -11 17 -11 22 0 33 8 7
14 10 14 7 0 -3 11 5 25 18 34 31 49 119 34 201 -6 32 -17 65 -24 73 -8 7 -12
20 -8 28 9 24 -5 57 -37 94 -16 18 -30 40 -30 47 0 16 -31 34 -57 34 -10 0
-26 14 -35 30 -12 21 -25 30 -43 30 -24 0 -25 3 -20 33 8 47 -25 97 -64 97
-16 0 -31 5 -33 12 -3 7 -19 11 -39 10 -28 -2 -43 5 -74 32 -21 19 -58 39 -84
46 -25 6 -68 23 -95 37 -30 16 -76 29 -120 34 -39 4 -84 11 -101 14 -16 3 -37
1 -45 -5z m-105 -228 c-11 -9 -19 -25 -17 -34 2 -11 -3 -18 -12 -18 -12 0 -16
10 -16 35 0 33 2 35 33 35 31 -1 32 -1 12 -18z m-115 -54 l-1 -43 -13 30 c-13
31 -11 55 5 55 5 0 9 -19 9 -42z m-116 16 c11 -4 16 -19 16 -46 0 -37 17 -68
38 -68 6 0 8 8 5 19 -7 26 12 35 31 15 12 -11 16 -12 16 -2 0 10 3 10 9 -2 11
-16 4 -33 -10 -25 -5 4 -12 -1 -15 -9 -3 -8 -13 -18 -22 -21 -10 -2 -24 -19
-32 -37 l-15 -33 -6 45 c-4 25 -4 49 -1 54 3 5 0 6 -5 3 -6 -4 -21 2 -33 13
l-23 20 24 0 c15 0 19 3 12 8 -10 6 -16 72 -7 72 1 0 9 -3 18 -6z m163 -31 c2
-6 -3 -13 -12 -16 -10 -5 -15 0 -15 14 0 21 21 22 27 2z m144 -16 c-8 -8 -11
-7 -11 4 0 20 13 34 18 19 3 -7 -1 -17 -7 -23z m-61 19 c0 -3 -4 -8 -10 -11
-5 -3 -10 -1 -10 4 0 6 5 11 10 11 6 0 10 -2 10 -4z m225 -25 c10 -17 -12 -21
-25 -6 -10 12 -10 15 3 15 9 0 18 -4 22 -9z m-275 -11 c0 -5 -4 -10 -10 -10
-5 0 -10 -7 -10 -17 0 -9 -3 -14 -6 -10 -8 8 5 47 17 47 5 0 9 -4 9 -10z m66
-47 c-11 -11 -19 6 -11 24 8 17 8 17 12 0 3 -10 2 -21 -1 -24z m120 17 c5 1
10 -3 12 -9 2 -6 -3 -11 -10 -11 -9 0 -14 -12 -14 -32 0 -48 -13 -88 -27 -88
-7 0 -19 15 -27 33 -7 17 -16 37 -18 42 -3 6 4 2 16 -8 28 -26 45 -13 38 28
-7 37 2 74 14 55 4 -6 11 -11 16 -10z m-571 -30 c8 0 15 -3 15 -8 0 -4 -18 -8
-41 -8 -23 -1 -36 2 -29 6 6 4 13 16 15 26 2 10 4 21 5 24 1 3 5 -5 10 -17 5
-13 16 -23 25 -23z m1215 22 c0 -4 10 -8 21 -9 27 -2 51 -23 27 -23 -18 0 -44
-27 -35 -37 4 -3 13 0 22 7 8 7 21 10 29 7 10 -4 13 -1 9 9 -3 8 1 14 11 14
10 0 16 -9 16 -25 0 -14 9 -34 20 -45 11 -11 20 -30 20 -42 0 -18 -2 -20 -9
-9 -8 12 -12 12 -26 -2 -20 -21 -45 -22 -45 -3 0 21 -18 30 -34 17 -10 -8 -16
-5 -24 13 -9 21 -8 26 6 30 9 2 -2 2 -25 0 -37 -4 -45 -1 -77 31 -20 20 -36
40 -36 45 0 5 26 -4 57 -20 32 -17 61 -30 66 -30 9 0 3 52 -8 69 -3 6 -1 11 4
11 6 0 11 -4 11 -8z m-352 -35 c-28 -10 -36 0 -12 17 14 11 21 11 26 3 4 -7
-1 -15 -14 -20z m-752 5 c1 -7 2 -16 3 -21 0 -5 17 -31 37 -57 31 -41 35 -50
25 -71 -17 -38 -13 -51 16 -55 17 -2 29 -10 31 -21 3 -13 -2 -16 -20 -13 -13
3 -33 5 -45 5 -18 1 -23 7 -23 26 0 16 -6 25 -15 25 -8 0 -15 7 -15 15 0 9 -7
18 -15 21 -19 8 -20 34 -1 34 9 0 3 11 -15 29 -29 30 -37 51 -19 51 6 0 10 -4
10 -10 0 -5 9 -14 20 -20 17 -9 19 -8 13 7 -3 10 -9 23 -13 28 -5 9 -6 19 -1
41 2 10 26 -2 27 -14z m1084 -2 c0 -5 -2 -10 -4 -10 -3 0 -8 5 -11 10 -3 6 -1
10 4 10 6 0 11 -4 11 -10z m-778 -18 c11 -11 8 -12 -14 -7 -22 6 -28 4 -28 -9
0 -9 -4 -16 -9 -16 -9 0 -21 23 -21 40 0 12 58 6 72 -8z m268 14 c0 -3 -4 -8
-10 -11 -5 -3 -10 -1 -10 4 0 6 5 11 10 11 6 0 10 -2 10 -4z m304 -11 c-11 -8
-26 -15 -36 -15 -9 0 -19 -6 -21 -12 -4 -9 -6 -8 -6 3 -1 23 16 36 51 37 28 1
29 0 12 -13z m-1276 -67 c-10 -4 -18 -12 -18 -17 0 -6 -7 -8 -15 -5 -8 4 -15
11 -15 17 0 6 3 7 7 4 9 -10 43 23 44 42 1 9 4 5 8 -9 6 -19 3 -27 -11 -32z
m1363 41 c52 -27 84 -85 64 -113 -14 -19 -23 -11 -30 25 -6 28 -15 37 -15 15
0 -30 -24 -12 -33 25 -5 19 -13 40 -19 47 -13 15 5 16 33 1z m-1391 -9 c0 -5
-7 -10 -16 -10 -8 0 -12 5 -9 10 3 6 10 10 16 10 5 0 9 -4 9 -10z m184 -1 c-3
-6 -6 -37 -6 -68 1 -41 -3 -62 -18 -81 l-19 -25 -26 27 c-18 20 -25 38 -25 69
0 47 14 45 16 -3 2 -32 19 -56 31 -44 4 4 6 31 5 61 -2 42 1 56 15 64 24 14
36 14 27 0z m86 -9 c0 -19 -11 -26 -23 -14 -8 8 3 34 14 34 5 0 9 -9 9 -20z
m709 -17 c34 7 38 1 18 -28 -10 -13 -16 -15 -21 -6 -4 6 -11 9 -16 6 -4 -3
-21 1 -38 8 -26 11 -28 15 -20 37 l9 25 18 -24 c15 -20 24 -23 50 -18z m121
17 c0 -5 -4 -10 -10 -10 -5 0 -10 5 -10 10 0 6 5 10 10 10 6 0 10 -4 10 -10z
m-282 -29 c3 -8 -1 -12 -9 -9 -7 2 -15 10 -17 17 -3 8 1 12 9 9 7 -2 15 -10
17 -17z m376 -24 c6 -9 7 -19 3 -23 -9 -10 -48 26 -41 38 8 12 25 6 38 -15z
m-979 4 c3 -5 1 -12 -5 -16 -5 -3 -10 1 -10 9 0 18 6 21 15 7z m572 -18 c16
-20 22 -23 23 -12 0 9 7 16 15 16 10 0 15 -10 15 -26 0 -14 -4 -21 -8 -15 -4
5 -16 11 -27 12 -71 5 -85 11 -85 40 0 22 44 12 67 -15z m-240 5 c4 -7 28 -23
52 -36 l43 -22 -6 25 c-6 23 -4 24 26 18 45 -8 70 -22 62 -34 -3 -5 -14 -7
-25 -4 -14 5 -22 -1 -31 -19 -13 -29 -39 -34 -58 -11 -7 8 -23 15 -35 15 -18
0 -24 7 -29 34 -4 19 -12 37 -19 39 -9 4 -9 6 0 6 7 1 16 -5 20 -11z m507 6
c23 -9 20 -23 -4 -17 -11 3 -20 9 -20 14 0 11 3 11 24 3z m-709 -36 c12 -2 20
-11 20 -23 1 -27 34 -75 51 -75 8 0 28 -13 45 -28 l32 -28 -34 -22 c-19 -12
-35 -18 -36 -14 -1 4 -4 19 -7 35 -7 31 -36 37 -36 7 0 -13 -13 -25 -42 -38
-37 -16 -46 -16 -69 -5 -15 7 -29 22 -32 33 -6 23 -27 27 -27 6 0 -21 49 -76
68 -76 15 -1 14 -3 -3 -16 -12 -9 -30 -12 -46 -9 -15 4 -30 1 -34 -4 -3 -6 -2
-11 4 -11 9 0 5 -87 -5 -99 -8 -10 -24 12 -16 22 14 18 7 63 -9 59 -19 -4 -40
-33 -32 -45 3 -6 1 -7 -5 -3 -6 3 -13 2 -17 -4 -4 -6 -20 5 -39 25 -25 26 -35
32 -44 23 -28 -28 -9 12 22 45 23 25 32 44 29 57 -3 11 -9 17 -14 14 -5 -3 -9
8 -9 24 0 21 6 31 20 35 14 4 20 14 20 33 l0 27 21 -24 c15 -17 17 -25 7 -28
-7 -2 -18 -10 -25 -17 -20 -20 16 -28 38 -8 14 13 19 14 19 4 0 -16 10 -7 14
12 6 29 19 48 33 48 10 0 12 6 8 23 -8 24 -8 25 -6 47 3 24 31 -19 31 -47 0
-20 4 -22 26 -17 20 5 25 3 22 -7 -3 -8 -13 -14 -24 -14 -17 0 -20 -6 -15 -34
0 -5 15 -3 31 5 31 16 40 48 16 57 -18 7 -25 38 -14 66 8 22 10 22 26 8 9 -8
26 -17 37 -19z m-335 1 c0 -11 -4 -17 -10 -14 -5 3 -10 13 -10 21 0 8 5 14 10
14 6 0 10 -9 10 -21z m-80 -49 c0 -5 -4 -10 -10 -10 -5 0 -10 5 -10 10 0 6 5
10 10 10 6 0 10 -4 10 -10z m68 -27 c0 -40 -9 -48 -22 -21 -14 26 -10 48 9 48
7 0 13 -12 13 -27z m1248 -22 c-14 -22 -39 -47 -56 -56 -40 -21 -38 -2 3 24
17 11 28 21 24 21 -14 0 14 40 28 40 8 0 15 5 15 12 0 6 3 9 6 6 3 -4 -6 -24
-20 -47z m-1320 -8 c-10 -10 -19 5 -10 18 6 11 8 11 12 0 2 -7 1 -15 -2 -18z
m-49 -15 c-3 -8 -6 -5 -6 6 -1 11 2 17 5 13 3 -3 4 -12 1 -19z m-7 -49 c0 -5
-4 -9 -10 -9 -5 0 -10 7 -10 16 0 8 5 12 10 9 6 -3 10 -10 10 -16z m120 -189
c0 -5 -4 -10 -10 -10 -5 0 -10 5 -10 10 0 6 5 10 10 10 6 0 10 -4 10 -10z m40
0 c0 -5 -4 -10 -10 -10 -5 0 -10 5 -10 10 0 6 5 10 10 10 6 0 10 -4 10 -10z
m34 1 c3 -5 -1 -14 -9 -21 -11 -9 -14 -8 -12 9 1 22 12 28 21 12z m-144 -21
c0 -5 -4 -10 -10 -10 -5 0 -10 5 -10 10 0 6 5 10 10 10 6 0 10 -4 10 -10z
m108 -18 c2 -7 -3 -12 -12 -12 -9 0 -16 7 -16 16 0 17 22 14 28 -4z m192 4 c0
-2 -7 -6 -15 -10 -8 -3 -15 -1 -15 4 0 6 7 10 15 10 8 0 15 -2 15 -4z m-396
-111 c-4 -8 -8 -15 -10 -15 -2 0 -4 7 -4 15 0 8 4 15 10 15 5 0 7 -7 4 -15z
m-14 -35 c0 -5 -4 -10 -10 -10 -5 0 -10 5 -10 10 0 6 5 10 10 10 6 0 10 -4 10
-10z m70 -27 c0 -22 -2 -25 -10 -13 -13 20 -13 40 0 40 6 0 10 -12 10 -27z
m347 5 c-3 -8 -6 -5 -6 6 -1 11 2 17 5 13 3 -3 4 -12 1 -19z m-297 -63 c-7 -9
-15 -13 -18 -10 -3 2 1 11 8 20 7 9 15 13 18 10 3 -2 -1 -11 -8 -20z m-30 -10
c0 -8 -4 -15 -10 -15 -5 0 -10 7 -10 15 0 8 5 15 10 15 6 0 10 -7 10 -15z
m1480 -21 c22 -15 50 -43 62 -63 12 -20 43 -58 69 -86 39 -42 48 -59 54 -103
5 -36 3 -57 -5 -67 -16 -19 -31 -19 -24 0 9 23 -17 18 -58 -10 -46 -31 -74
-34 -56 -6 35 57 -92 77 -153 25 -8 -8 -25 -14 -37 -14 -29 0 -28 -6 11 -50
34 -41 77 -106 77 -119 0 -7 -54 -21 -137 -37 -28 -5 -71 10 -55 20 14 8 5 64
-14 86 -10 12 -9 24 5 65 10 28 25 64 33 80 26 51 32 93 14 111 -19 19 -21 40
-3 51 8 4 16 16 20 25 3 9 20 24 37 33 18 9 45 32 62 51 36 41 47 42 98 8z
m255 -233 c3 -5 1 -12 -5 -16 -5 -3 -10 1 -10 9 0 18 6 21 15 7z m-815 -761
c0 -5 -4 -10 -10 -10 -5 0 -10 5 -10 10 0 6 5 10 10 10 6 0 10 -4 10 -10z"/>
<path d="M3367 4353 c-12 -11 -8 -23 8 -23 8 0 15 7 15 15 0 16 -12 20 -23 8z"/>
<path d="M3260 4216 c0 -21 20 -30 33 -17 9 9 8 14 -3 21 -21 14 -30 12 -30
-4z"/>
<path d="M3120 4182 c-8 -3 -21 -12 -29 -19 -8 -8 -22 -12 -32 -10 -15 4 -19
-1 -19 -22 0 -15 -6 -36 -14 -46 -15 -20 -10 -55 8 -55 23 0 35 17 38 55 3 35
6 40 30 43 18 2 28 11 33 29 7 29 5 32 -15 25z"/>
<path d="M3102 4100 c0 -14 2 -19 5 -12 2 6 2 18 0 25 -3 6 -5 1 -5 -13z"/>
<path d="M2913 3620 c-30 -12 -43 -41 -43 -94 0 -58 13 -59 30 -3 17 53 34 78
62 94 l23 12 -25 0 c-14 0 -35 -4 -47 -9z"/>
<path d="M3016 3594 c-10 -26 -7 -34 13 -34 26 0 36 17 21 35 -16 19 -26 19
-34 -1z"/>
<path d="M3028 3504 c-15 -8 -32 -23 -38 -34 -6 -11 -17 -20 -25 -20 -8 0 -15
-6 -15 -12 1 -17 30 -56 30 -40 0 7 21 22 48 35 40 19 47 27 50 55 4 36 -7 40
-50 16z"/>
<path d="M2840 3398 c0 -18 59 -132 71 -136 5 -2 9 -8 9 -13 0 -5 15 -30 33
-56 19 -27 53 -83 78 -127 49 -87 58 -82 34 20 -15 66 -19 72 -93 144 -50 48
-88 95 -105 129 -15 30 -27 48 -27 39z"/>
<path d="M3727 3094 c-13 -13 -7 -24 14 -24 11 0 19 5 17 12 -5 14 -22 21 -31
12z"/>
<path d="M3767 3045 c-7 -16 8 -29 23 -20 10 6 2 35 -10 35 -4 0 -10 -7 -13
-15z"/>
<path d="M4110 2940 c0 -5 5 -10 11 -10 5 0 7 5 4 10 -3 6 -8 10 -11 10 -2 0
-4 -4 -4 -10z"/>
<path d="M3590 2706 c0 -12 15 -14 53 -7 4 0 7 6 7 11 0 6 -13 10 -30 10 -19
0 -30 -5 -30 -14z"/>
<path d="M3076 2265 c-9 -21 -16 -44 -16 -52 0 -8 -6 -26 -14 -41 -7 -15 -17
-47 -21 -72 -5 -33 -18 -57 -50 -91 -23 -25 -48 -55 -54 -67 -11 -21 -10 -22
22 -22 l33 0 -1 -54 c-1 -30 -7 -61 -13 -69 -7 -8 -10 -21 -8 -28 3 -8 8 -75
11 -149 10 -212 12 -241 19 -247 3 -3 5 59 5 138 0 79 2 153 4 164 3 11 8 51
12 89 6 49 13 74 28 89 16 16 22 37 25 84 3 42 9 63 17 63 9 0 15 39 20 146 4
80 5 148 2 151 -3 3 -13 -12 -21 -32z"/>
<path d="M4961 2004 c0 -11 3 -14 6 -6 3 7 2 16 -1 19 -3 4 -6 -2 -5 -13z"/>
<path d="M5021 1994 c0 -11 3 -14 6 -6 3 7 2 16 -1 19 -3 4 -6 -2 -5 -13z"/>
<path d="M4696 1972 c-3 -5 3 -18 12 -28 10 -10 16 -26 14 -34 -1 -9 6 -25 16
-36 11 -11 22 -26 25 -34 4 -11 6 -11 6 -2 1 15 -35 97 -54 125 -7 10 -15 14
-19 9z"/>
<path d="M4650 1930 c0 -5 7 -28 16 -50 16 -40 34 -53 34 -25 0 8 -4 15 -9 15
-5 0 -12 16 -15 35 -6 31 -26 51 -26 25z"/>
<path d="M3673 1923 c-26 -5 -38 -32 -18 -40 11 -4 13 -9 5 -18 -8 -9 -6 -14
7 -19 17 -7 43 16 43 37 0 5 17 7 39 3 40 -6 70 12 56 34 -9 15 -35 12 -41 -5
-4 -8 -15 -15 -25 -15 -11 0 -22 7 -25 15 -4 8 -9 14 -13 14 -3 -1 -16 -4 -28
-6z"/>
<path d="M5020 1901 c0 -17 5 -33 10 -36 6 -4 10 8 10 29 0 20 -4 36 -10 36
-5 0 -10 -13 -10 -29z"/>
<path d="M4990 1849 c0 -11 4 -18 10 -14 5 3 7 12 3 20 -7 21 -13 19 -13 -6z"/>
<path d="M5272 1830 c0 -19 2 -27 5 -17 2 9 2 25 0 35 -3 9 -5 1 -5 -18z"/>
<path d="M5332 1835 c0 -16 2 -22 5 -12 2 9 2 23 0 30 -3 6 -5 -1 -5 -18z"/>
<path d="M4926 1815 c6 -41 11 -52 19 -44 2 3 -3 23 -11 44 l-15 40 7 -40z"/>
<path d="M2527 1812 c12 -12 24 -30 28 -42 6 -20 35 -29 35 -10 0 6 5 10 11
10 5 0 7 -4 4 -10 -8 -12 35 -13 54 -1 11 7 8 11 -10 16 -13 4 -35 16 -49 26
-14 10 -41 22 -60 25 l-35 7 22 -21z"/>
<path d="M4700 1806 c0 -8 7 -21 15 -30 8 -8 15 -23 15 -33 0 -23 17 -49 26
-40 4 3 2 12 -3 19 -6 7 -13 26 -17 42 -8 34 -36 67 -36 42z"/>
<path d="M4786 1776 c3 -9 11 -16 16 -16 13 0 5 23 -10 28 -7 2 -10 -2 -6 -12z"/>
<path d="M5401 1741 c0 -33 3 -51 8 -45 5 5 5 29 1 54 l-7 45 -2 -54z"/>
<path d="M5535 1770 c-3 -5 1 -10 9 -10 9 0 16 5 16 10 0 6 -4 10 -9 10 -6 0
-13 -4 -16 -10z"/>
<path d="M5281 1754 c0 -11 3 -14 6 -6 3 7 2 16 -1 19 -3 4 -6 -2 -5 -13z"/>
<path d="M4951 1744 c0 -11 3 -14 6 -6 3 7 2 16 -1 19 -3 4 -6 -2 -5 -13z"/>
<path d="M4992 1753 c3 -5 13 -27 23 -50 10 -24 21 -43 26 -43 4 0 -4 23 -17
50 -13 28 -27 50 -30 50 -3 0 -4 -3 -2 -7z"/>
<path d="M2811 1724 c0 -11 3 -14 6 -6 3 7 2 16 -1 19 -3 4 -6 -2 -5 -13z"/>
<path d="M5510 1715 c0 -8 5 -15 10 -15 6 0 10 7 10 15 0 8 -4 15 -10 15 -5 0
-10 -7 -10 -15z"/>
<path d="M5591 1714 c0 -11 3 -14 6 -6 3 7 2 16 -1 19 -3 4 -6 -2 -5 -13z"/>
<path d="M4812 1709 c2 -7 10 -15 17 -17 8 -3 12 1 9 9 -2 7 -10 15 -17 17 -8
3 -12 -1 -9 -9z"/>
<path d="M5080 1688 c0 -9 5 -20 11 -23 6 -4 14 -17 19 -29 5 -12 9 -15 9 -6
1 8 -8 29 -19 45 -14 20 -20 25 -20 13z"/>
<path d="M4760 1675 c0 -8 4 -15 10 -15 5 0 7 7 4 15 -4 8 -8 15 -10 15 -2 0
-4 -7 -4 -15z"/>
<path d="M5572 1678 c-5 -7 -26 -44 -46 -82 -35 -68 -46 -119 -26 -131 6 -4
10 5 10 20 0 14 4 33 9 43 5 9 19 40 31 67 12 28 27 58 32 68 11 23 5 32 -10
15z"/>
<path d="M4830 1669 c0 -16 30 -43 38 -34 4 4 1 10 -5 12 -7 3 -13 11 -13 19
0 8 -4 14 -10 14 -5 0 -10 -5 -10 -11z"/>
<path d="M5472 1645 c-10 -18 -4 -65 8 -65 6 0 15 30 21 67 2 15 -20 13 -29
-2z"/>
<path d="M5300 1591 c0 -28 -4 -52 -9 -56 -11 -6 -3 -75 10 -89 5 -6 9 34 9
92 0 56 -2 102 -5 102 -3 0 -5 -22 -5 -49z"/>
<path d="M4600 1615 c0 -24 16 -51 22 -39 3 5 -1 20 -8 34 -12 22 -14 22 -14
5z"/>
<path d="M5030 1600 c0 -5 5 -10 11 -10 5 0 7 5 4 10 -3 6 -8 10 -11 10 -2 0
-4 -4 -4 -10z"/>
<path d="M5081 1594 c0 -11 3 -14 6 -6 3 7 2 16 -1 19 -3 4 -6 -2 -5 -13z"/>
<path d="M4860 1590 c0 -5 5 -10 10 -10 6 0 10 5 10 10 0 6 -4 10 -10 10 -5 0
-10 -4 -10 -10z"/>
<path d="M5144 1564 c4 -15 14 -33 21 -41 19 -18 19 -14 0 31 -18 42 -30 48
-21 10z"/>
<path d="M5090 1562 c0 -5 7 -15 15 -22 8 -7 15 -8 15 -2 0 5 -7 15 -15 22 -8
7 -15 8 -15 2z"/>
<path d="M4620 1550 c-13 -8 -12 -13 7 -32 27 -27 34 -22 19 14 -9 20 -15 25
-26 18z"/>
<path d="M5237 1520 c-5 -18 14 -45 25 -35 7 8 -3 55 -12 55 -4 0 -10 -9 -13
-20z"/>
<path d="M4650 1470 c0 -11 5 -20 10 -20 6 0 10 9 10 20 0 11 -4 20 -10 20 -5
0 -10 -9 -10 -20z"/>
<path d="M5340 1456 c0 -14 -4 -28 -10 -31 -15 -9 -12 -48 6 -83 8 -18 20 -61
26 -97 9 -54 13 -64 24 -53 14 14 4 75 -21 133 -19 43 -24 84 -15 116 5 17 5
31 -1 34 -5 4 -9 -5 -9 -19z"/>
<path d="M5262 1427 c-6 -7 -26 -14 -44 -15 -18 -1 -55 -6 -83 -12 -80 -18
-148 -31 -175 -35 -63 -10 -81 -15 -164 -47 -49 -18 -91 -38 -93 -44 -2 -7 17
-20 42 -30 l46 -17 -6 -41 c-4 -23 -8 -52 -10 -66 -2 -14 -7 -45 -11 -70 -4
-25 -7 -49 -6 -53 1 -4 -4 -18 -13 -30 -8 -12 -15 -29 -15 -38 0 -9 -9 -26
-19 -38 -10 -12 -25 -36 -32 -54 -13 -33 -21 -44 -51 -77 -9 -10 -19 -28 -23
-41 -9 -27 -23 -42 -47 -52 -10 -3 -18 -11 -18 -18 0 -6 -15 -29 -33 -52 -53
-66 -77 -122 -77 -177 0 -28 3 -50 6 -50 10 0 128 73 152 94 12 11 22 24 22
28 0 15 27 38 35 30 5 -4 5 -1 1 6 -4 7 -11 10 -16 7 -5 -3 -11 -1 -14 4 -3 5
4 11 15 14 18 5 20 11 14 37 -7 30 -6 31 14 21 12 -7 21 -21 21 -31 0 -11 5
-20 11 -20 7 0 8 7 4 18 -4 9 -9 46 -11 82 -2 36 -5 82 -7 103 -4 50 18 71 28
26 5 -22 10 -28 18 -20 7 7 7 18 1 33 -12 27 -4 90 11 95 6 2 21 -14 33 -34
14 -26 22 -32 23 -20 3 31 4 35 12 43 4 5 -2 17 -15 27 l-23 19 22 -5 c19 -4
20 -3 10 15 -10 16 -9 22 6 32 9 7 17 21 17 30 0 10 8 16 25 16 21 0 25 -5 25
-29 0 -17 4 -32 9 -35 13 -9 23 59 15 109 -4 27 -2 45 3 45 10 0 33 -65 33
-94 0 -9 9 -33 20 -54 l21 -37 -7 65 c-3 36 -10 94 -14 130 -8 70 -5 86 12 56
10 -18 11 -18 24 5 l13 24 10 -25 10 -25 0 29 c1 27 2 28 14 12 7 -9 19 -16
27 -14 10 2 18 -12 25 -49 5 -28 13 -55 17 -58 10 -10 21 41 16 70 -3 14 -3
25 -1 25 10 0 43 -95 46 -135 2 -25 7 -48 11 -52 9 -10 7 68 -3 103 -14 51 4
61 23 14 19 -49 34 -47 17 1 -6 18 -11 61 -11 97 0 52 3 63 14 59 9 -4 18 2
22 15 3 12 15 31 25 42 11 11 19 26 19 34 0 12 3 12 15 2 12 -10 15 -9 15 6
-1 11 -9 34 -19 52 -14 28 -19 31 -29 19z m-95 -244 c-4 -3 -2 -12 4 -20 8 -9
8 -13 1 -13 -6 0 -14 5 -17 10 -6 10 2 30 12 30 4 0 3 -3 0 -7z m-312 -143
c-3 -5 -11 -10 -16 -10 -6 0 -7 5 -4 10 3 6 11 10 16 10 6 0 7 -4 4 -10z
m-215 -470 c0 -5 -2 -10 -4 -10 -3 0 -8 5 -11 10 -3 6 -1 10 4 10 6 0 11 -4
11 -10z"/>
<path d="M4667 1417 c-5 -14 19 -54 28 -45 3 3 -1 17 -9 32 -9 18 -15 22 -19
13z"/>
<path d="M5510 1400 c0 -5 5 -10 10 -10 6 0 10 5 10 10 0 6 -4 10 -10 10 -5 0
-10 -4 -10 -10z"/>
<path d="M4550 1390 c0 -5 5 -10 11 -10 5 0 7 5 4 10 -3 6 -8 10 -11 10 -2 0
-4 -4 -4 -10z"/>
<path d="M2981 1344 c0 -11 3 -14 6 -6 3 7 2 16 -1 19 -3 4 -6 -2 -5 -13z"/>
<path d="M4536 1336 c-3 -13 -9 -32 -12 -43 -5 -17 -5 -17 6 0 6 9 17 17 24
17 8 0 19 7 27 16 10 13 10 17 -2 25 -23 15 -37 10 -43 -15z"/>
<path d="M2980 1308 c-1 -7 -1 -85 -2 -173 -1 -88 -3 -152 -5 -142 -3 9 -9 17
-14 17 -13 0 -11 -24 3 -38 10 -10 10 -17 0 -32 -15 -24 -16 -60 -2 -60 6 0
10 15 10 33 1 30 1 31 15 13 13 -18 15 3 15 187 0 131 -4 207 -10 207 -5 0
-10 -6 -10 -12z"/>
<path d="M5030 1160 c0 -5 5 -10 11 -10 5 0 7 5 4 10 -3 6 -8 10 -11 10 -2 0
-4 -4 -4 -10z"/>
<path d="M2577 1144 c-4 -4 -7 -14 -7 -23 0 -11 3 -12 11 -4 6 6 10 16 7 23
-2 6 -7 8 -11 4z"/>
<path d="M4965 1141 c-2 -5 4 -11 15 -14 11 -3 20 -2 20 3 0 12 -28 21 -35 11z"/>
<path d="M2622 1090 c0 -19 2 -27 5 -17 2 9 2 25 0 35 -3 9 -5 1 -5 -18z"/>
<path d="M5103 1024 c-8 -32 -5 -64 7 -79 4 -5 10 -21 13 -35 3 -14 3 11 0 55
-3 44 -7 82 -9 84 -2 2 -6 -10 -11 -25z"/>
<path d="M2560 1014 c0 -8 5 -12 10 -9 6 3 10 10 10 16 0 5 -4 9 -10 9 -5 0
-10 -7 -10 -16z"/>
<path d="M2600 958 c0 -36 4 -35 14 5 4 16 2 27 -4 27 -5 0 -10 -14 -10 -32z"/>
<path d="M2000 906 c0 -20 5 -36 10 -36 6 0 10 13 10 29 0 17 -4 33 -10 36 -6
4 -10 -8 -10 -29z"/>
<path d="M2971 876 c-8 -10 -7 -22 4 -47 l15 -34 -2 48 c-1 26 -3 47 -4 47 -1
0 -7 -6 -13 -14z"/>
<path d="M2041 840 c0 -19 3 -41 8 -48 16 -26 22 17 7 51 l-14 32 -1 -35z"/>
<path d="M2944 799 c9 -51 18 -252 16 -354 -1 -97 17 -182 21 -95 3 84 -2 385
-7 403 -3 10 0 17 8 17 9 0 10 2 2 8 -7 4 -13 16 -15 26 -2 11 -10 21 -17 24
-10 3 -12 -4 -8 -29z"/>
<path d="M1982 790 c0 -19 2 -27 5 -17 2 9 2 25 0 35 -3 9 -5 1 -5 -18z"/>
<path d="M4787 738 c3 -46 8 -86 12 -90 5 -6 6 35 2 150 -1 12 -5 22 -10 22
-5 0 -7 -36 -4 -82z"/>
<path d="M4907 753 c-5 -46 -3 -62 8 -51 11 10 17 98 8 98 -6 0 -13 -21 -16
-47z"/>
<path d="M2053 720 c0 -30 2 -43 4 -27 2 15 2 39 0 55 -2 15 -4 2 -4 -28z"/>
<path d="M2571 658 c-1 -16 4 -28 9 -28 12 0 12 8 0 35 -8 18 -9 17 -9 -7z"/>
<path d="M2053 605 c0 -22 2 -30 4 -17 2 12 2 30 0 40 -3 9 -5 -1 -4 -23z"/>
<path d="M2189 629 c-8 -42 -6 -54 11 -76 l20 -26 0 40 c0 24 -6 46 -15 53 -8
7 -15 11 -16 9z"/>
<path d="M2333 520 c0 -36 2 -50 4 -32 2 17 2 47 0 65 -2 17 -4 3 -4 -33z"/>
<path d="M2682 530 c0 -14 2 -19 5 -12 2 6 2 18 0 25 -3 6 -5 1 -5 -13z"/>
<path d="M2273 500 c0 -25 2 -35 4 -22 2 12 2 32 0 45 -2 12 -4 2 -4 -23z"/>
<path d="M2490 496 c0 -9 5 -16 10 -16 6 0 10 4 10 9 0 6 -4 13 -10 16 -5 3
-10 -1 -10 -9z"/>
<path d="M2676 401 c-4 -7 -5 -15 -2 -18 9 -9 19 4 14 18 -4 11 -6 11 -12 0z"/>
<path d="M2493 275 c0 -22 2 -30 4 -17 2 12 2 30 0 40 -3 9 -5 -1 -4 -23z"/>
<path d="M2651 284 c0 -11 3 -14 6 -6 3 7 2 16 -1 19 -3 4 -6 -2 -5 -13z"/>
<path d="M2150 270 c0 -11 5 -20 10 -20 6 0 10 9 10 20 0 11 -4 20 -10 20 -5
0 -10 -9 -10 -20z"/>
<path d="M2545 270 c-3 -5 -1 -10 4 -10 6 0 11 5 11 10 0 6 -2 10 -4 10 -3 0
-8 -4 -11 -10z"/>
<path d="M2303 125 c0 -22 2 -30 4 -17 2 12 2 30 0 40 -3 9 -5 -1 -4 -23z"/>
<path d="M2806 141 c-4 -7 -5 -15 -2 -18 9 -9 19 4 14 18 -4 11 -6 11 -12 0z"/>
<path d="M2958 85 c-3 -71 -1 -85 13 -85 5 0 9 34 9 75 0 92 -17 100 -22 10z"/>
<path d="M2471 124 c0 -11 3 -14 6 -6 3 7 2 16 -1 19 -3 4 -6 -2 -5 -13z"/>
<path d="M2910 100 c0 -5 5 -10 10 -10 6 0 10 5 10 10 0 6 -4 10 -10 10 -5 0
-10 -4 -10 -10z"/>
<path d="M2526 57 c3 -10 9 -15 12 -12 3 3 0 11 -7 18 -10 9 -11 8 -5 -6z"/>
<path d="M2785 50 c3 -5 8 -10 11 -10 2 0 4 5 4 10 0 6 -5 10 -11 10 -5 0 -7
-4 -4 -10z"/>
</g>
</svg>
